<svg width="920" height="456" viewBox="0 0 920 456" fill="none" xmlns="http://www.w3.org/2000/svg">
<path d="M0 91.1841L45.5919 45.5921V410.057L0 455.92V91.1841Z" fill="#0070D7"/>
<path d="M182.368 6.10352e-05H227.96V405.262L182.368 455.92V6.10352e-05Z" fill="#0070D7"/>
<path d="M91.1833 227.96H182.367V273.552H45.5913L91.1833 227.96Z" fill="#0070D7"/>
<path d="M91.1833 6.10352e-05H182.367V45.592H45.5913L91.1833 6.10352e-05Z" fill="#0070D7"/>
<path d="M592.695 45.5919L638.287 0V455.919H592.695V45.5919Z" fill="#0070D7"/>
<path d="M733.118 45.5919L778.71 -6.10352e-05V455.919H733.118V45.5919Z" fill="#0070D7"/>
<path d="M638.287 410.327H733.118L687.526 455.919H638.287V410.327Z" fill="#0070D7"/>
<path d="M873.541 45.5919L919.133 -6.10352e-05V364.736L873.541 410.327L873.541 45.5919Z" fill="#0070D7"/>
<path d="M778.709 410.327H873.541L827.949 455.919H778.709V410.327Z" fill="#0070D7"/>
<path d="M273.552 91.1841L319.144 45.5921V455.92H273.552V91.1841Z" fill="#0070D7"/>
<path d="M501.512 220.665L547.104 220.665V364.736L501.512 410.328V220.665Z" fill="#0070D7"/>
<path d="M455.919 6.16014e-05L501.511 6.10352e-05V175.073H455.919V6.16014e-05Z" fill="#0070D7"/>
<path d="M364.736 175.073H501.511V220.665H319.144L364.736 175.073Z" fill="#0070D7"/>
<path d="M364.736 410.328H501.511L455.919 455.92H319.144L364.736 410.328Z" fill="#0070D7"/>
<path d="M364.736 6.10352e-05H455.919V45.592H319.144L364.736 6.10352e-05Z" fill="#0070D7"/>
</svg>
