<?xml version="1.0" encoding="utf-8"?>
<!-- Generator: Adobe Illustrator 25.4.1, SVG Export Plug-In . SVG Version: 6.00 Build 0)  -->
<svg version="1.1" id="Layer_1" xmlns="http://www.w3.org/2000/svg" xmlns:xlink="http://www.w3.org/1999/xlink" x="0px" y="0px"
	 viewBox="0 0 285.1 427.6" style="enable-background:new 0 0 285.1 427.6;" xml:space="preserve">
<style type="text/css">
	.st0{fill-opacity:0;}
	.st1{fill:#1ABCFE;}
	.st2{fill:#0ACF83;}
	.st3{fill:#FF7262;}
	.st4{fill:#F24E1E;}
	.st5{fill:#A259FF;}
</style>
<rect y="0" class="st0" width="285.1" height="427.6"/>
<path class="st1" d="M142.5,213.8c0-39.4,31.9-71.3,71.3-71.3l0,0c39.4,0,71.3,31.9,71.3,71.3l0,0c0,39.4-31.9,71.3-71.3,71.3l0,0
	C174.4,285.1,142.5,253.2,142.5,213.8L142.5,213.8z"/>
<path class="st2" d="M0,356.3c0-39.4,31.9-71.3,71.3-71.3h71.3v71.3c0,39.4-31.9,71.3-71.3,71.3l0,0C31.9,427.6,0,395.7,0,356.3
	L0,356.3z"/>
<path class="st3" d="M142.5,0v142.5h71.3c39.4,0,71.3-31.9,71.3-71.3l0,0c0-39.4-31.9-71.3-71.3-71.3H142.5z"/>
<path class="st4" d="M0,71.3c0,39.4,31.9,71.3,71.3,71.3h71.3V0H71.3C31.9,0,0,31.9,0,71.3L0,71.3z"/>
<path class="st5" d="M0,213.8c0,39.4,31.9,71.3,71.3,71.3h71.3V142.5H71.3C31.9,142.5,0,174.4,0,213.8L0,213.8z"/>
</svg>
