<?xml version="1.0" encoding="UTF-8" standalone="no"?>
<!DOCTYPE svg PUBLIC "-//W3C//DTD SVG 1.1//EN" "http://www.w3.org/Graphics/SVG/1.1/DTD/svg11.dtd">
<svg xmlns="http://www.w3.org/2000/svg" version="1.1" viewBox="0.00 0.00 310.00 274.00">
<g stroke-width="2.00" fill="none" stroke-linecap="butt">
<path stroke="#c2e2b5" vector-effect="non-scaling-stroke" d="
  M 206.76 11.70
  C 182.38 4.73 157.23 4.05 131.94 5.95
  C 111.92 7.45 91.88 11.69 75.50 22.60
  C 66.10 28.87 64.15 52.69 63.84 64.01
  C 63.09 91.51 67.72 119.13 82.30 141.70
  Q 106.78 179.59 148.74 199.37
  C 150.80 200.34 152.70 201.48 154.95 200.47
  Q 194.92 182.59 220.25 146.62
  C 240.64 117.67 245.75 79.90 240.46 45.56
  C 239.49 39.20 237.23 28.67 232.19 24.24
  C 225.37 18.23 215.42 14.17 206.76 11.70"
/>
<path stroke="#c5b9aa" vector-effect="non-scaling-stroke" d="
  M 199.52 241.85
  C 198.83 242.17 196.01 242.93 196.17 244.06
  Q 196.24 244.50 196.68 244.53
  Q 207.67 245.30 213.21 244.70
  C 224.66 243.46 231.29 234.57 228.92 223.45
  C 225.73 208.46 207.65 211.77 196.82 211.77
  Q 195.62 211.77 195.50 213.11
  Q 195.44 213.71 196.05 213.73
  Q 198.36 213.82 200.07 215.21
  Q 200.50 215.55 200.50 216.11
  L 200.49 240.32
  A 1.70 1.69 -12.7 0 1 199.52 241.85"
/>
<path stroke="#c5b9aa" vector-effect="non-scaling-stroke" d="
  M 253.71 225.80
  C 262.45 220.92 257.53 211.80 248.88 211.76
  Q 241.50 211.73 234.13 211.77
  C 233.35 211.78 232.69 212.23 232.74 213.02
  Q 232.77 213.53 233.27 213.66
  L 236.76 214.54
  Q 237.44 214.71 237.44 215.41
  L 237.50 240.16
  Q 237.50 241.92 235.75 242.15
  Q 233.71 242.42 232.55 244.00
  A 0.39 0.39 0.0 0 0 232.84 244.62
  C 240.19 245.01 250.30 246.31 256.58 241.86
  C 263.17 237.20 261.43 228.86 253.76 226.26
  Q 253.21 226.08 253.71 225.80"
/>
<path stroke="#9e9796" vector-effect="non-scaling-stroke" d="
  M 54.50 225.03
  L 54.50 223.03
  Q 54.50 222.32 53.84 222.58
  C 52.83 222.98 46.28 224.76 46.23 225.12
  Q 46.15 225.66 46.70 225.72
  C 49.16 226.01 50.23 227.17 50.26 229.74
  Q 50.34 235.27 50.11 240.81
  Q 50.09 241.32 49.72 241.68
  C 48.88 242.47 46.38 242.76 46.49 243.92
  Q 46.54 244.49 47.12 244.49
  L 56.76 244.50
  Q 57.35 244.50 57.60 243.97
  L 57.81 243.52
  Q 58.08 242.93 57.43 242.82
  L 55.11 242.43
  Q 54.41 242.32 54.41 241.60
  L 54.32 228.53
  Q 54.32 228.01 54.72 227.68
  C 58.00 224.99 62.88 224.69 64.08 229.71
  Q 64.69 232.24 64.30 236.99
  C 64.09 239.61 65.06 242.35 61.37 242.98
  Q 60.88 243.06 60.75 243.55
  C 60.34 245.14 70.29 244.49 71.53 244.49
  A 0.59 0.59 0.0 0 0 72.01 243.57
  Q 71.23 242.41 69.79 242.50
  A 1.18 1.17 87.9 0 1 68.55 241.34
  L 68.38 228.57
  Q 68.38 228.07 68.72 227.71
  C 71.21 225.12 77.14 225.05 77.79 229.69
  Q 78.59 235.41 78.03 241.18
  Q 77.98 241.74 77.46 241.98
  L 75.33 242.97
  Q 74.90 243.17 75.00 243.64
  C 75.31 245.04 84.06 244.50 85.59 244.48
  A 0.70 0.70 0.0 0 0 85.83 243.12
  L 82.93 242.04
  Q 82.48 241.87 82.45 241.39
  C 82.25 237.01 83.06 228.99 81.06 225.66
  C 78.21 220.92 72.52 222.58 68.47 225.68
  Q 68.01 226.03 67.57 225.64
  C 65.47 223.75 64.70 222.14 61.00 222.78
  Q 58.67 223.18 55.29 225.45
  Q 54.50 225.98 54.50 225.03"
/>
<path stroke="#9e9796" vector-effect="non-scaling-stroke" d="
  M 94.0035 243.0021
  A 11.47 11.05 126.4 0 0 109.7041 240.3273
  A 11.47 11.05 126.4 0 0 107.6165 224.5379
  A 11.47 11.05 126.4 0 0 91.9159 227.2127
  A 11.47 11.05 126.4 0 0 94.0035 243.0021"
/>
<path stroke="#9e9796" vector-effect="non-scaling-stroke" d="
  M 123.75 225.03
  L 123.75 223.11
  Q 123.75 222.54 123.20 222.68
  L 115.98 224.46
  Q 115.50 224.58 115.50 225.07
  L 115.50 225.49
  Q 115.50 226.15 116.16 226.18
  C 118.28 226.30 119.27 227.22 119.27 229.45
  Q 119.27 234.57 119.20 239.69
  Q 119.17 242.40 116.62 242.71
  Q 116.02 242.78 115.84 243.36
  L 115.72 243.72
  Q 115.50 244.43 116.23 244.45
  L 126.42 244.81
  A 0.92 0.92 0.0 0 0 127.17 243.32
  Q 126.24 242.15 124.64 242.49
  Q 123.89 242.65 123.88 241.88
  L 123.70 228.92
  Q 123.69 228.38 124.09 228.01
  C 127.26 225.15 132.22 225.03 133.37 229.94
  Q 134.18 233.39 133.36 241.55
  Q 133.30 242.18 132.68 242.32
  L 130.81 242.74
  Q 130.25 242.87 130.25 243.44
  L 130.25 243.85
  Q 130.25 244.46 130.85 244.46
  L 141.08 244.59
  Q 141.67 244.60 141.73 244.01
  C 141.93 242.33 139.69 242.38 138.66 241.94
  Q 138.16 241.72 138.19 241.17
  C 138.56 233.78 138.92 214.60 124.53 225.41
  Q 123.75 226.00 123.75 225.03"
/>
<path stroke="#9e9796" vector-effect="non-scaling-stroke" d="
  M 173.0789 243.1637
  A 11.51 11.04 125.3 0 0 188.7402 240.1495
  A 11.51 11.04 125.3 0 0 186.3811 224.3763
  A 11.51 11.04 125.3 0 0 170.7198 227.3905
  A 11.51 11.04 125.3 0 0 173.0789 243.1637"
/>
<path stroke="#9e9796" vector-effect="non-scaling-stroke" d="
  M 149.45 238.71
  L 146.33 240.88
  A 1.30 1.30 0.0 0 0 146.33 243.02
  L 148.54 244.55
  Q 149.00 244.87 148.59 245.25
  Q 146.94 246.79 145.23 248.23
  C 142.02 250.94 144.73 255.07 147.57 256.67
  C 153.46 259.98 162.92 256.38 165.32 249.71
  C 168.32 241.33 155.94 241.51 151.43 241.13
  A 0.81 0.81 0.0 0 1 150.74 240.04
  C 151.07 239.12 151.59 238.52 152.64 238.37
  C 158.67 237.50 163.35 234.18 161.81 227.29
  Q 161.65 226.58 162.37 226.73
  Q 166.16 227.55 166.13 223.53
  Q 166.13 223.14 165.76 223.29
  C 161.05 225.30 159.22 222.60 155.11 222.64
  C 145.97 222.74 139.38 232.72 149.40 237.98
  Q 150.03 238.31 149.45 238.71"
/>
<path stroke="#637a45" vector-effect="non-scaling-stroke" d="
  M 81.80 38.02
  C 75.79 58.76 76.72 82.89 81.19 102.52
  C 89.40 138.62 118.47 168.41 150.71 184.78
  C 153.72 186.31 154.14 185.34 156.57 184.07
  C 190.97 166.03 218.68 135.46 225.83 96.81
  C 229.46 77.21 229.67 56.07 224.04 37.27
  Q 223.24 34.60 220.51 32.98
  C 203.69 22.99 182.50 19.72 163.25 19.34
  C 137.90 18.83 108.63 19.32 85.92 32.72
  Q 82.79 34.57 81.80 38.02"
/>
<path stroke="#526d3b" vector-effect="non-scaling-stroke" d="
  M 136.10 50.33
  Q 122.61 69.91 121.07 95.03
  C 119.58 119.21 131.18 140.05 149.51 154.94
  C 150.20 155.50 150.36 156.04 150.83 156.78"
/>
<path stroke="#827561" vector-effect="non-scaling-stroke" d="
  M 150.83 156.78
  Q 152.68 163.94 152.51 171.49
  Q 152.50 172.07 153.06 172.20
  L 155.88 172.89
  Q 156.81 173.12 156.67 172.17
  Q 155.32 163.13 158.16 154.43"
/>
<path stroke="#4a6334" vector-effect="non-scaling-stroke" d="
  M 158.16 154.43
  C 189.41 130.28 192.98 89.54 172.56 57.28
  C 167.93 49.97 160.04 41.94 154.04 34.00"
/>
<path stroke="#637a45" vector-effect="non-scaling-stroke" d="
  M 154.04 34.00
  L 152.78 31.12
  Q 152.49 30.46 152.20 31.13
  C 151.64 32.47 151.29 33.99 150.22 35.05
  C 145.15 40.07 140.38 44.64 136.10 50.33"
/>
<path stroke="#6cad5b" vector-effect="non-scaling-stroke" d="
  M 154.04 34.00
  C 153.32 50.23 154.35 66.30 154.21 82.50"
/>
<path stroke="#75b862" vector-effect="non-scaling-stroke" d="
  M 154.21 82.50
  L 153.75 83.68
  Q 153.57 84.13 153.17 83.87
  C 149.95 81.76 145.14 72.38 144.93 68.53
  Q 144.35 57.73 136.10 50.33"
/>
<path stroke="#8ba977" vector-effect="non-scaling-stroke" d="
  M 158.16 154.43
  Q 154.07 149.96 153.46 143.50"
/>
<path stroke="#5ca151" vector-effect="non-scaling-stroke" d="
  M 153.46 143.50
  C 155.18 123.30 154.54 105.47 154.21 82.50"
/>
<path stroke="#94b37e" vector-effect="non-scaling-stroke" d="
  M 153.46 143.50
  Q 151.51 144.37 152.50 146.70
  Q 152.99 147.87 152.69 149.69
  Q 151.96 154.20 150.83 156.78"
/>
<path stroke="#c5b9aa" vector-effect="non-scaling-stroke" d="
  M 205.68 217.13
  L 205.80 239.59
  A 2.83 2.83 0.0 0 0 208.64 242.40
  L 211.27 242.39
  A 12.75 12.54 89.7 0 0 223.75 229.57
  L 223.73 226.95
  A 12.75 12.54 89.7 0 0 211.13 214.27
  L 208.50 214.28
  A 2.83 2.83 0.0 0 0 205.68 217.13"
/>
<path stroke="#c5b9aa" vector-effect="non-scaling-stroke" d="
  M 242.52 214.90
  L 242.48 225.30
  A 0.54 0.54 0.0 0 0 243.02 225.84
  L 247.28 225.86
  A 5.48 5.21 0.2 0 0 252.78 220.67
  L 252.78 219.61
  A 5.48 5.21 0.2 0 0 247.32 214.38
  L 243.06 214.36
  A 0.54 0.54 0.0 0 0 242.52 214.90"
/>
<path stroke="#c5b9aa" vector-effect="non-scaling-stroke" d="
  M 242.62 228.88
  Q 242.18 233.85 242.67 238.80
  C 243.31 245.28 257.25 243.02 254.80 233.55
  C 253.51 228.57 247.63 227.92 243.20 228.30
  Q 242.66 228.34 242.62 228.88"
/>
<path stroke="#9e9796" vector-effect="non-scaling-stroke" d="
  M 102.5938 242.6837
  A 9.12 6.31 78.4 0 0 106.9411 232.4812
  A 9.12 6.31 78.4 0 0 98.9262 224.8163
  A 9.12 6.31 78.4 0 0 94.5789 235.0188
  A 9.12 6.31 78.4 0 0 102.5938 242.6837"
/>
<path stroke="#9e9796" vector-effect="non-scaling-stroke" d="
  M 181.4707 242.6903
  A 9.11 6.33 78.6 0 0 185.8751 232.5088
  A 9.11 6.33 78.6 0 0 177.8693 224.8297
  A 9.11 6.33 78.6 0 0 173.4649 235.0112
  A 9.11 6.33 78.6 0 0 181.4707 242.6903"
/>
<path stroke="#9e9796" vector-effect="non-scaling-stroke" d="
  M 154.4289 236.0386
  A 5.81 4.54 80.4 0 0 157.9364 229.5529
  A 5.81 4.54 80.4 0 0 152.4911 224.5814
  A 5.81 4.54 80.4 0 0 148.9836 231.0671
  A 5.81 4.54 80.4 0 0 154.4289 236.0386"
/>
<path stroke="#9e9796" vector-effect="non-scaling-stroke" d="
  M 161.8489 250.3027
  A 7.03 4.85 1.0 0 0 154.9046 245.3307
  A 7.03 4.85 1.0 0 0 147.7911 250.0573
  A 7.03 4.85 1.0 0 0 154.7354 255.0293
  A 7.03 4.85 1.0 0 0 161.8489 250.3027"
/>
</g>
<path fill="#ffffff" d="
  M 0.00 0.00
  L 310.00 0.00
  L 310.00 274.00
  L 0.00 274.00
  L 0.00 0.00
  Z
  M 206.76 11.70
  C 182.38 4.73 157.23 4.05 131.94 5.95
  C 111.92 7.45 91.88 11.69 75.50 22.60
  C 66.10 28.87 64.15 52.69 63.84 64.01
  C 63.09 91.51 67.72 119.13 82.30 141.70
  Q 106.78 179.59 148.74 199.37
  C 150.80 200.34 152.70 201.48 154.95 200.47
  Q 194.92 182.59 220.25 146.62
  C 240.64 117.67 245.75 79.90 240.46 45.56
  C 239.49 39.20 237.23 28.67 232.19 24.24
  C 225.37 18.23 215.42 14.17 206.76 11.70
  Z
  M 199.52 241.85
  C 198.83 242.17 196.01 242.93 196.17 244.06
  Q 196.24 244.50 196.68 244.53
  Q 207.67 245.30 213.21 244.70
  C 224.66 243.46 231.29 234.57 228.92 223.45
  C 225.73 208.46 207.65 211.77 196.82 211.77
  Q 195.62 211.77 195.50 213.11
  Q 195.44 213.71 196.05 213.73
  Q 198.36 213.82 200.07 215.21
  Q 200.50 215.55 200.50 216.11
  L 200.49 240.32
  A 1.70 1.69 -12.7 0 1 199.52 241.85
  Z
  M 253.71 225.80
  C 262.45 220.92 257.53 211.80 248.88 211.76
  Q 241.50 211.73 234.13 211.77
  C 233.35 211.78 232.69 212.23 232.74 213.02
  Q 232.77 213.53 233.27 213.66
  L 236.76 214.54
  Q 237.44 214.71 237.44 215.41
  L 237.50 240.16
  Q 237.50 241.92 235.75 242.15
  Q 233.71 242.42 232.55 244.00
  A 0.39 0.39 0.0 0 0 232.84 244.62
  C 240.19 245.01 250.30 246.31 256.58 241.86
  C 263.17 237.20 261.43 228.86 253.76 226.26
  Q 253.21 226.08 253.71 225.80
  Z
  M 54.50 225.03
  L 54.50 223.03
  Q 54.50 222.32 53.84 222.58
  C 52.83 222.98 46.28 224.76 46.23 225.12
  Q 46.15 225.66 46.70 225.72
  C 49.16 226.01 50.23 227.17 50.26 229.74
  Q 50.34 235.27 50.11 240.81
  Q 50.09 241.32 49.72 241.68
  C 48.88 242.47 46.38 242.76 46.49 243.92
  Q 46.54 244.49 47.12 244.49
  L 56.76 244.50
  Q 57.35 244.50 57.60 243.97
  L 57.81 243.52
  Q 58.08 242.93 57.43 242.82
  L 55.11 242.43
  Q 54.41 242.32 54.41 241.60
  L 54.32 228.53
  Q 54.32 228.01 54.72 227.68
  C 58.00 224.99 62.88 224.69 64.08 229.71
  Q 64.69 232.24 64.30 236.99
  C 64.09 239.61 65.06 242.35 61.37 242.98
  Q 60.88 243.06 60.75 243.55
  C 60.34 245.14 70.29 244.49 71.53 244.49
  A 0.59 0.59 0.0 0 0 72.01 243.57
  Q 71.23 242.41 69.79 242.50
  A 1.18 1.17 87.9 0 1 68.55 241.34
  L 68.38 228.57
  Q 68.38 228.07 68.72 227.71
  C 71.21 225.12 77.14 225.05 77.79 229.69
  Q 78.59 235.41 78.03 241.18
  Q 77.98 241.74 77.46 241.98
  L 75.33 242.97
  Q 74.90 243.17 75.00 243.64
  C 75.31 245.04 84.06 244.50 85.59 244.48
  A 0.70 0.70 0.0 0 0 85.83 243.12
  L 82.93 242.04
  Q 82.48 241.87 82.45 241.39
  C 82.25 237.01 83.06 228.99 81.06 225.66
  C 78.21 220.92 72.52 222.58 68.47 225.68
  Q 68.01 226.03 67.57 225.64
  C 65.47 223.75 64.70 222.14 61.00 222.78
  Q 58.67 223.18 55.29 225.45
  Q 54.50 225.98 54.50 225.03
  Z
  M 94.0035 243.0021
  A 11.47 11.05 126.4 0 0 109.7041 240.3273
  A 11.47 11.05 126.4 0 0 107.6165 224.5379
  A 11.47 11.05 126.4 0 0 91.9159 227.2127
  A 11.47 11.05 126.4 0 0 94.0035 243.0021
  Z
  M 123.75 225.03
  L 123.75 223.11
  Q 123.75 222.54 123.20 222.68
  L 115.98 224.46
  Q 115.50 224.58 115.50 225.07
  L 115.50 225.49
  Q 115.50 226.15 116.16 226.18
  C 118.28 226.30 119.27 227.22 119.27 229.45
  Q 119.27 234.57 119.20 239.69
  Q 119.17 242.40 116.62 242.71
  Q 116.02 242.78 115.84 243.36
  L 115.72 243.72
  Q 115.50 244.43 116.23 244.45
  L 126.42 244.81
  A 0.92 0.92 0.0 0 0 127.17 243.32
  Q 126.24 242.15 124.64 242.49
  Q 123.89 242.65 123.88 241.88
  L 123.70 228.92
  Q 123.69 228.38 124.09 228.01
  C 127.26 225.15 132.22 225.03 133.37 229.94
  Q 134.18 233.39 133.36 241.55
  Q 133.30 242.18 132.68 242.32
  L 130.81 242.74
  Q 130.25 242.87 130.25 243.44
  L 130.25 243.85
  Q 130.25 244.46 130.85 244.46
  L 141.08 244.59
  Q 141.67 244.60 141.73 244.01
  C 141.93 242.33 139.69 242.38 138.66 241.94
  Q 138.16 241.72 138.19 241.17
  C 138.56 233.78 138.92 214.60 124.53 225.41
  Q 123.75 226.00 123.75 225.03
  Z
  M 173.0789 243.1637
  A 11.51 11.04 125.3 0 0 188.7402 240.1495
  A 11.51 11.04 125.3 0 0 186.3811 224.3763
  A 11.51 11.04 125.3 0 0 170.7198 227.3905
  A 11.51 11.04 125.3 0 0 173.0789 243.1637
  Z
  M 149.45 238.71
  L 146.33 240.88
  A 1.30 1.30 0.0 0 0 146.33 243.02
  L 148.54 244.55
  Q 149.00 244.87 148.59 245.25
  Q 146.94 246.79 145.23 248.23
  C 142.02 250.94 144.73 255.07 147.57 256.67
  C 153.46 259.98 162.92 256.38 165.32 249.71
  C 168.32 241.33 155.94 241.51 151.43 241.13
  A 0.81 0.81 0.0 0 1 150.74 240.04
  C 151.07 239.12 151.59 238.52 152.64 238.37
  C 158.67 237.50 163.35 234.18 161.81 227.29
  Q 161.65 226.58 162.37 226.73
  Q 166.16 227.55 166.13 223.53
  Q 166.13 223.14 165.76 223.29
  C 161.05 225.30 159.22 222.60 155.11 222.64
  C 145.97 222.74 139.38 232.72 149.40 237.98
  Q 150.03 238.31 149.45 238.71
  Z"
/>
<path fill="#85c46b" d="
  M 131.94 5.95
  C 157.23 4.05 182.38 4.73 206.76 11.70
  C 215.42 14.17 225.37 18.23 232.19 24.24
  C 237.23 28.67 239.49 39.20 240.46 45.56
  C 245.75 79.90 240.64 117.67 220.25 146.62
  Q 194.92 182.59 154.95 200.47
  C 152.70 201.48 150.80 200.34 148.74 199.37
  Q 106.78 179.59 82.30 141.70
  C 67.72 119.13 63.09 91.51 63.84 64.01
  C 64.15 52.69 66.10 28.87 75.50 22.60
  C 91.88 11.69 111.92 7.45 131.94 5.95
  Z
  M 81.80 38.02
  C 75.79 58.76 76.72 82.89 81.19 102.52
  C 89.40 138.62 118.47 168.41 150.71 184.78
  C 153.72 186.31 154.14 185.34 156.57 184.07
  C 190.97 166.03 218.68 135.46 225.83 96.81
  C 229.46 77.21 229.67 56.07 224.04 37.27
  Q 223.24 34.60 220.51 32.98
  C 203.69 22.99 182.50 19.72 163.25 19.34
  C 137.90 18.83 108.63 19.32 85.92 32.72
  Q 82.79 34.57 81.80 38.02
  Z"
/>
<path fill="#402f1e" d="
  M 81.19 102.52
  C 76.72 82.89 75.79 58.76 81.80 38.02
  Q 82.79 34.57 85.92 32.72
  C 108.63 19.32 137.90 18.83 163.25 19.34
  C 182.50 19.72 203.69 22.99 220.51 32.98
  Q 223.24 34.60 224.04 37.27
  C 229.67 56.07 229.46 77.21 225.83 96.81
  C 218.68 135.46 190.97 166.03 156.57 184.07
  C 154.14 185.34 153.72 186.31 150.71 184.78
  C 118.47 168.41 89.40 138.62 81.19 102.52
  Z
  M 136.10 50.33
  Q 122.61 69.91 121.07 95.03
  C 119.58 119.21 131.18 140.05 149.51 154.94
  C 150.20 155.50 150.36 156.04 150.83 156.78
  Q 152.68 163.94 152.51 171.49
  Q 152.50 172.07 153.06 172.20
  L 155.88 172.89
  Q 156.81 173.12 156.67 172.17
  Q 155.32 163.13 158.16 154.43
  C 189.41 130.28 192.98 89.54 172.56 57.28
  C 167.93 49.97 160.04 41.94 154.04 34.00
  L 152.78 31.12
  Q 152.49 30.46 152.20 31.13
  C 151.64 32.47 151.29 33.99 150.22 35.05
  C 145.15 40.07 140.38 44.64 136.10 50.33
  Z"
/>
<path fill="#85c46b" d="
  M 154.04 34.00
  C 153.32 50.23 154.35 66.30 154.21 82.50
  L 153.75 83.68
  Q 153.57 84.13 153.17 83.87
  C 149.95 81.76 145.14 72.38 144.93 68.53
  Q 144.35 57.73 136.10 50.33
  C 140.38 44.64 145.15 40.07 150.22 35.05
  C 151.29 33.99 151.64 32.47 152.20 31.13
  Q 152.49 30.46 152.78 31.12
  L 154.04 34.00
  Z"
/>
<path fill="#53964a" d="
  M 154.04 34.00
  C 160.04 41.94 167.93 49.97 172.56 57.28
  C 192.98 89.54 189.41 130.28 158.16 154.43
  Q 154.07 149.96 153.46 143.50
  C 155.18 123.30 154.54 105.47 154.21 82.50
  C 154.35 66.30 153.32 50.23 154.04 34.00
  Z"
/>
<path fill="#64ab58" d="
  M 136.10 50.33
  Q 144.35 57.73 144.93 68.53
  C 145.14 72.38 149.95 81.76 153.17 83.87
  Q 153.57 84.13 153.75 83.68
  L 154.21 82.50
  C 154.54 105.47 155.18 123.30 153.46 143.50
  Q 151.51 144.37 152.50 146.70
  Q 152.99 147.87 152.69 149.69
  Q 151.96 154.20 150.83 156.78
  C 150.36 156.04 150.20 155.50 149.51 154.94
  C 131.18 140.05 119.58 119.21 121.07 95.03
  Q 122.61 69.91 136.10 50.33
  Z"
/>
<path fill="#c3bba3" d="
  M 153.46 143.50
  Q 154.07 149.96 158.16 154.43
  Q 155.32 163.13 156.67 172.17
  Q 156.81 173.12 155.88 172.89
  L 153.06 172.20
  Q 152.50 172.07 152.51 171.49
  Q 152.68 163.94 150.83 156.78
  Q 151.96 154.20 152.69 149.69
  Q 152.99 147.87 152.50 146.70
  Q 151.51 144.37 153.46 143.50
  Z"
/>
<path fill="#8a7355" d="
  M 199.52 241.85
  A 1.70 1.69 -12.7 0 0 200.49 240.32
  L 200.50 216.11
  Q 200.50 215.55 200.07 215.21
  Q 198.36 213.82 196.05 213.73
  Q 195.44 213.71 195.50 213.11
  Q 195.62 211.77 196.82 211.77
  C 207.65 211.77 225.73 208.46 228.92 223.45
  C 231.29 234.57 224.66 243.46 213.21 244.70
  Q 207.67 245.30 196.68 244.53
  Q 196.24 244.50 196.17 244.06
  C 196.01 242.93 198.83 242.17 199.52 241.85
  Z
  M 205.68 217.13
  L 205.80 239.59
  A 2.83 2.83 0.0 0 0 208.64 242.40
  L 211.27 242.39
  A 12.75 12.54 89.7 0 0 223.75 229.57
  L 223.73 226.95
  A 12.75 12.54 89.7 0 0 211.13 214.27
  L 208.50 214.28
  A 2.83 2.83 0.0 0 0 205.68 217.13
  Z"
/>
<path fill="#8a7355" d="
  M 253.76 226.26
  C 261.43 228.86 263.17 237.20 256.58 241.86
  C 250.30 246.31 240.19 245.01 232.84 244.62
  A 0.39 0.39 0.0 0 1 232.55 244.00
  Q 233.71 242.42 235.75 242.15
  Q 237.50 241.92 237.50 240.16
  L 237.44 215.41
  Q 237.44 214.71 236.76 214.54
  L 233.27 213.66
  Q 232.77 213.53 232.74 213.02
  C 232.69 212.23 233.35 211.78 234.13 211.77
  Q 241.50 211.73 248.88 211.76
  C 257.53 211.80 262.45 220.92 253.71 225.80
  Q 253.21 226.08 253.76 226.26
  Z
  M 242.52 214.90
  L 242.48 225.30
  A 0.54 0.54 0.0 0 0 243.02 225.84
  L 247.28 225.86
  A 5.48 5.21 0.2 0 0 252.78 220.67
  L 252.78 219.61
  A 5.48 5.21 0.2 0 0 247.32 214.38
  L 243.06 214.36
  A 0.54 0.54 0.0 0 0 242.52 214.90
  Z
  M 242.62 228.88
  Q 242.18 233.85 242.67 238.80
  C 243.31 245.28 257.25 243.02 254.80 233.55
  C 253.51 228.57 247.63 227.92 243.20 228.30
  Q 242.66 228.34 242.62 228.88
  Z"
/>
<path fill="#ffffff" d="
  M 205.68 217.13
  A 2.83 2.83 0.0 0 1 208.50 214.28
  L 211.13 214.27
  A 12.75 12.54 89.7 0 1 223.73 226.95
  L 223.75 229.57
  A 12.75 12.54 89.7 0 1 211.27 242.39
  L 208.64 242.40
  A 2.83 2.83 0.0 0 1 205.80 239.59
  L 205.68 217.13
  Z"
/>
<path fill="#ffffff" d="
  M 242.52 214.90
  A 0.54 0.54 0.0 0 1 243.06 214.36
  L 247.32 214.38
  A 5.48 5.21 0.2 0 1 252.78 219.61
  L 252.78 220.67
  A 5.48 5.21 0.2 0 1 247.28 225.86
  L 243.02 225.84
  A 0.54 0.54 0.0 0 1 242.48 225.30
  L 242.52 214.90
  Z"
/>
<path fill="#3d2f2c" d="
  M 55.29 225.45
  Q 58.67 223.18 61.00 222.78
  C 64.70 222.14 65.47 223.75 67.57 225.64
  Q 68.01 226.03 68.47 225.68
  C 72.52 222.58 78.21 220.92 81.06 225.66
  C 83.06 228.99 82.25 237.01 82.45 241.39
  Q 82.48 241.87 82.93 242.04
  L 85.83 243.12
  A 0.70 0.70 0.0 0 1 85.59 244.48
  C 84.06 244.50 75.31 245.04 75.00 243.64
  Q 74.90 243.17 75.33 242.97
  L 77.46 241.98
  Q 77.98 241.74 78.03 241.18
  Q 78.59 235.41 77.79 229.69
  C 77.14 225.05 71.21 225.12 68.72 227.71
  Q 68.38 228.07 68.38 228.57
  L 68.55 241.34
  A 1.18 1.17 87.9 0 0 69.79 242.50
  Q 71.23 242.41 72.01 243.57
  A 0.59 0.59 0.0 0 1 71.53 244.49
  C 70.29 244.49 60.34 245.14 60.75 243.55
  Q 60.88 243.06 61.37 242.98
  C 65.06 242.35 64.09 239.61 64.30 236.99
  Q 64.69 232.24 64.08 229.71
  C 62.88 224.69 58.00 224.99 54.72 227.68
  Q 54.32 228.01 54.32 228.53
  L 54.41 241.60
  Q 54.41 242.32 55.11 242.43
  L 57.43 242.82
  Q 58.08 242.93 57.81 243.52
  L 57.60 243.97
  Q 57.35 244.50 56.76 244.50
  L 47.12 244.49
  Q 46.54 244.49 46.49 243.92
  C 46.38 242.76 48.88 242.47 49.72 241.68
  Q 50.09 241.32 50.11 240.81
  Q 50.34 235.27 50.26 229.74
  C 50.23 227.17 49.16 226.01 46.70 225.72
  Q 46.15 225.66 46.23 225.12
  C 46.28 224.76 52.83 222.98 53.84 222.58
  Q 54.50 222.32 54.50 223.03
  L 54.50 225.03
  Q 54.50 225.98 55.29 225.45
  Z"
/>
<path fill="#3d2f2c" d="
  M 94.0035 243.0021
  A 11.47 11.05 126.4 0 1 91.9159 227.2127
  A 11.47 11.05 126.4 0 1 107.6165 224.5379
  A 11.47 11.05 126.4 0 1 109.7041 240.3273
  A 11.47 11.05 126.4 0 1 94.0035 243.0021
  Z
  M 102.5938 242.6837
  A 9.12 6.31 78.4 0 0 106.9411 232.4812
  A 9.12 6.31 78.4 0 0 98.9262 224.8163
  A 9.12 6.31 78.4 0 0 94.5789 235.0188
  A 9.12 6.31 78.4 0 0 102.5938 242.6837
  Z"
/>
<path fill="#3d2f2c" d="
  M 124.53 225.41
  C 138.92 214.60 138.56 233.78 138.19 241.17
  Q 138.16 241.72 138.66 241.94
  C 139.69 242.38 141.93 242.33 141.73 244.01
  Q 141.67 244.60 141.08 244.59
  L 130.85 244.46
  Q 130.25 244.46 130.25 243.85
  L 130.25 243.44
  Q 130.25 242.87 130.81 242.74
  L 132.68 242.32
  Q 133.30 242.18 133.36 241.55
  Q 134.18 233.39 133.37 229.94
  C 132.22 225.03 127.26 225.15 124.09 228.01
  Q 123.69 228.38 123.70 228.92
  L 123.88 241.88
  Q 123.89 242.65 124.64 242.49
  Q 126.24 242.15 127.17 243.32
  A 0.92 0.92 0.0 0 1 126.42 244.81
  L 116.23 244.45
  Q 115.50 244.43 115.72 243.72
  L 115.84 243.36
  Q 116.02 242.78 116.62 242.71
  Q 119.17 242.40 119.20 239.69
  Q 119.27 234.57 119.27 229.45
  C 119.27 227.22 118.28 226.30 116.16 226.18
  Q 115.50 226.15 115.50 225.49
  L 115.50 225.07
  Q 115.50 224.58 115.98 224.46
  L 123.20 222.68
  Q 123.75 222.54 123.75 223.11
  L 123.75 225.03
  Q 123.75 226.00 124.53 225.41
  Z"
/>
<path fill="#3d2f2c" d="
  M 173.0789 243.1637
  A 11.51 11.04 125.3 0 1 170.7198 227.3905
  A 11.51 11.04 125.3 0 1 186.3811 224.3763
  A 11.51 11.04 125.3 0 1 188.7402 240.1495
  A 11.51 11.04 125.3 0 1 173.0789 243.1637
  Z
  M 181.4707 242.6903
  A 9.11 6.33 78.6 0 0 185.8751 232.5088
  A 9.11 6.33 78.6 0 0 177.8693 224.8297
  A 9.11 6.33 78.6 0 0 173.4649 235.0112
  A 9.11 6.33 78.6 0 0 181.4707 242.6903
  Z"
/>
<path fill="#3d2f2c" d="
  M 149.40 237.98
  C 139.38 232.72 145.97 222.74 155.11 222.64
  C 159.22 222.60 161.05 225.30 165.76 223.29
  Q 166.13 223.14 166.13 223.53
  Q 166.16 227.55 162.37 226.73
  Q 161.65 226.58 161.81 227.29
  C 163.35 234.18 158.67 237.50 152.64 238.37
  C 151.59 238.52 151.07 239.12 150.74 240.04
  A 0.81 0.81 0.0 0 0 151.43 241.13
  C 155.94 241.51 168.32 241.33 165.32 249.71
  C 162.92 256.38 153.46 259.98 147.57 256.67
  C 144.73 255.07 142.02 250.94 145.23 248.23
  Q 146.94 246.79 148.59 245.25
  Q 149.00 244.87 148.54 244.55
  L 146.33 243.02
  A 1.30 1.30 0.0 0 1 146.33 240.88
  L 149.45 238.71
  Q 150.03 238.31 149.40 237.98
  Z
  M 154.4289 236.0386
  A 5.81 4.54 80.4 0 0 157.9364 229.5529
  A 5.81 4.54 80.4 0 0 152.4911 224.5814
  A 5.81 4.54 80.4 0 0 148.9836 231.0671
  A 5.81 4.54 80.4 0 0 154.4289 236.0386
  Z
  M 161.8489 250.3027
  A 7.03 4.85 1.0 0 0 154.9046 245.3307
  A 7.03 4.85 1.0 0 0 147.7911 250.0573
  A 7.03 4.85 1.0 0 0 154.7354 255.0293
  A 7.03 4.85 1.0 0 0 161.8489 250.3027
  Z"
/>
<ellipse fill="#ffffff" cx="0.00" cy="0.00" transform="translate(100.76,233.75) rotate(78.4)" rx="9.12" ry="6.31"/>
<ellipse fill="#ffffff" cx="0.00" cy="0.00" transform="translate(153.46,230.31) rotate(80.4)" rx="5.81" ry="4.54"/>
<ellipse fill="#ffffff" cx="0.00" cy="0.00" transform="translate(179.67,233.76) rotate(78.6)" rx="9.11" ry="6.33"/>
<path fill="#ffffff" d="
  M 243.20 228.30
  C 247.63 227.92 253.51 228.57 254.80 233.55
  C 257.25 243.02 243.31 245.28 242.67 238.80
  Q 242.18 233.85 242.62 228.88
  Q 242.66 228.34 243.20 228.30
  Z"
/>
<ellipse fill="#ffffff" cx="0.00" cy="0.00" transform="translate(154.82,250.18) rotate(1.0)" rx="7.03" ry="4.85"/>
</svg>
